<?xml version="1.0" encoding="utf-8"?>
<!-- Generator: Adobe Illustrator 20.1.0, SVG Export Plug-In . SVG Version: 6.00 Build 0)  -->
<svg version="1.1" id="Layer_1" xmlns="http://www.w3.org/2000/svg"  x="0px" y="0px"
	 viewBox="0 0 24 24" style="enable-background:new 0 0 24 24;" xml:space="preserve">
<g>
	<path d="M16,1H4C2.9,1,2,1.9,2,3v14h2V3h12V1z"/>
	<path d="M19,5H8C6.9,5,6,5.9,6,7v14c0,1.1,0.9,2,2,2h11c1.1,0,2-0.9,2-2V7C21,5.9,20.1,5,19,5z M17.5,15h-3v3h-2v-3h-3v-2h3v-3h2v3
		h3V15z"/>
</g>
</svg>
