<?xml version="1.0" encoding="utf-8"?>
<!-- Generator: Adobe Illustrator 20.1.0, SVG Export Plug-In . SVG Version: 6.00 Build 0)  -->
<svg version="1.1" id="Layer_1" xmlns="http://www.w3.org/2000/svg"  x="0px" y="0px"
	 viewBox="0 0 60 60" style="enable-background:new 0 0 60 60;" xml:space="preserve">
<style type="text/css">
	.st0{fill:#C9CBD0;}
</style>
<g>
	<path class="st0" d="M27.7,25.9h4.6c0.5,0,1-0.4,1-1V17c0-0.5-0.4-1-1-1h-4.6c-0.5,0-1,0.4-1,1v7.9C26.7,25.4,27.2,25.9,27.7,25.9z
		"/>
	<path class="st0" d="M29.1,35.8l-3.7-2.7c-0.4-0.3-1.1-0.2-1.4,0.2l-4.6,6.4c-0.3,0.4-0.2,1.1,0.2,1.4l3.7,2.7
		c0.4,0.3,1.1,0.2,1.4-0.2l4.6-6.4C29.6,36.8,29.5,36.1,29.1,35.8z"/>
	<path class="st0" d="M36.1,33.3c-0.3-0.4-0.9-0.5-1.4-0.2L31,35.8c-0.4,0.3-0.5,0.9-0.2,1.4l4.6,6.4c0.3,0.4,0.9,0.5,1.4,0.2
		l3.7-2.7c0.4-0.3,0.5-0.9,0.2-1.4L36.1,33.3z"/>
	<path class="st0" d="M44.7,28.3l-1.5-4.4c-0.2-0.5-0.7-0.8-1.2-0.6l-7.5,2.5c-0.5,0.2-0.8,0.7-0.6,1.3l1.5,4.4
		c0.2,0.5,0.7,0.8,1.2,0.6l7.5-2.5C44.6,29.3,44.9,28.8,44.7,28.3z"/>
	<path class="st0" d="M24.7,31.4l1.5-4.4c0.2-0.5-0.1-1.1-0.6-1.3l-7.5-2.5c-0.5-0.1-1.1,0.2-1.3,0.7l-1.5,4.4
		c-0.2,0.5,0.1,1.1,0.6,1.3l7.6,2.4C24,32.2,24.5,31.9,24.7,31.4z"/>
</g>
</svg>
