<?xml version="1.0" encoding="utf-8"?>
<!-- Generator: Adobe Illustrator 20.1.0, SVG Export Plug-In . SVG Version: 6.00 Build 0)  -->
<svg version="1.1" id="Layer_1" xmlns="http://www.w3.org/2000/svg"  x="0px" y="0px"
	 viewBox="0 0 190 60" style="enable-background:new 0 0 190 60;" xml:space="preserve">
<style type="text/css">
	.st5{fill:#C9CBD0;}
</style>
<path class="st5" d="M116.2,29.1l5.6-6.9h-4.3l-5.6,6.9l5.9,7.5h4.5L116.2,29.1z M108.7,36.6h3.6V22.2h-3.6V36.6z"/>
<polygon class="st5" points="73.4,36.6 69.8,36.6 69.8,31.2 64,31.2 64,36.6 60.3,36.6 60.3,22.2 64,22.2 64,28 69.8,28 69.8,22.2
	73.4,22.2 "/>
<polygon class="st5" points="105.6,36.6 101.9,36.6 101.9,25.4 96.1,25.4 96.1,36.6 92.4,36.6 92.4,22.2 96.1,22.2 101.9,22.2
	105.6,22.2 "/>
<path class="st5" d="M75.8,29.4c0-4.5,3.4-7.5,7.9-7.5c3.5,0,5.4,2,6.3,3.9l-3.2,1.5c-0.5-1.2-1.7-2.1-3.1-2.1
	c-2.4,0-4.1,1.8-4.1,4.2s1.7,4.2,4.1,4.2c1.4,0,2.6-1,3.1-2.1l3.2,1.5c-0.9,1.9-2.8,3.9-6.3,3.9C79.2,36.9,75.8,33.9,75.8,29.4"/>
<g>
	<path class="st5" d="M27.8,24.5h4.6c0.5,0,1-0.4,1-1v-7.9c0-0.5-0.4-1-1-1h-4.6c-0.5,0-1,0.4-1,1v7.9C26.8,24,27.2,24.5,27.8,24.5z
		"/>
	<path class="st5" d="M29.1,34.4l-3.7-2.7c-0.4-0.3-1.1-0.2-1.4,0.2l-4.6,6.4c-0.3,0.4-0.2,1.1,0.2,1.4l3.7,2.7
		c0.4,0.3,1.1,0.2,1.4-0.2l4.6-6.4C29.6,35.4,29.5,34.7,29.1,34.4z"/>
	<path class="st5" d="M36.2,31.9c-0.3-0.4-0.9-0.5-1.4-0.2L31,34.4c-0.4,0.3-0.5,0.9-0.2,1.4l4.6,6.4c0.3,0.4,0.9,0.5,1.4,0.2
		l3.7-2.7c0.4-0.3,0.5-0.9,0.2-1.4L36.2,31.9z"/>
	<path class="st5" d="M44.8,26.9l-1.5-4.4C43,22,42.5,21.7,42,21.9l-7.5,2.5c-0.5,0.2-0.8,0.7-0.6,1.3l1.5,4.4
		c0.2,0.5,0.7,0.8,1.2,0.6l7.5-2.5C44.7,27.9,45,27.4,44.8,26.9z"/>
	<path class="st5" d="M24.8,30l1.5-4.4c0.2-0.5-0.1-1.1-0.6-1.3l-7.5-2.5c-0.5-0.1-1.1,0.2-1.3,0.7l-1.5,4.4
		c-0.2,0.5,0.1,1.1,0.6,1.3l7.6,2.4C24,30.8,24.5,30.5,24.8,30z"/>
</g>
</svg>
