<?xml version="1.0" encoding="utf-8"?>
<!-- Generator: Adobe Illustrator 20.1.0, SVG Export Plug-In . SVG Version: 6.00 Build 0)  -->
<svg version="1.1" id="Layer_1" xmlns="http://www.w3.org/2000/svg" xmlns:xlink="http://www.w3.org/1999/xlink" x="0px" y="0px"
	 viewBox="0 0 190 60" style="enable-background:new 0 0 190 60;" xml:space="preserve">
<style type="text/css">
	.st0{clip-path:url(#SVGID_2_);fill:url(#SVGID_3_);}
	.st1{fill:#3DA536;}
</style>
<g>
	<g>
		<g>
			<defs>
				<path id="SVGID_1_" d="M111.4,19.5c0.7,5.1,5.4,9.1,11.1,9.1h9.5V25c-0.9-3.2-4-5.6-7.8-5.6H111.4z"/>
			</defs>
			<clipPath id="SVGID_2_">
				<use xlink:href="#SVGID_1_"  style="overflow:visible;"/>
			</clipPath>
			
				<linearGradient id="SVGID_3_" gradientUnits="userSpaceOnUse" x1="-211.0321" y1="-388.1811" x2="-210.3773" y2="-388.1811" gradientTransform="matrix(31.8691 0 0 31.8691 6836.8042 12394.9814)">
				<stop  offset="0" style="stop-color:#00A7E3"/>
				<stop  offset="0.2935" style="stop-color:#009EDC"/>
				<stop  offset="0.7768" style="stop-color:#0085CB"/>
				<stop  offset="1" style="stop-color:#0077C1"/>
			</linearGradient>
			<rect x="111.4" y="19.5" class="st0" width="20.6" height="9.1"/>
		</g>
	</g>
	<g>
		<path class="st1" d="M100,21.6l-4.8,10.8h-0.4v-13h-6.5v21h6c1.5,0,2.8-0.9,3.4-2.2l4.6-10.3h0.4v12.5h6.5v-21h-5.7
			C101.9,19.5,100.6,20.4,100,21.6"/>
		<path class="st1" d="M73.8,22.5L72,32h-0.4l-2-9.4c-0.4-1.8-1.9-3-3.7-3H58v21h6.3V24.6h0.4l3.9,15.8h5.9l3.8-15.8h0.4v15.8h6.6
			v-21h-7.9C75.7,19.5,74.1,20.8,73.8,22.5"/>
		<path class="st1" d="M112.1,29.5v11h6.5v-6.2h5.6c3.5,0,6.4-2,7.5-4.8H112.1z"/>
	</g>
</g>
</svg>
