<?xml version="1.0" encoding="utf-8"?>
<!-- Generator: Adobe Illustrator 20.1.0, SVG Export Plug-In . SVG Version: 6.00 Build 0)  -->
<svg version="1.1" id="Layer_1" xmlns="http://www.w3.org/2000/svg"  x="0px" y="0px"
	 viewBox="0 0 24 24" style="enable-background:new 0 0 24 24;" xml:space="preserve">
<path d="M15,1H9v2h6V1z M11,14h2V8h-2V14z M19,7.4L20.4,6C20,5.5,19.5,5,19,4.6L17.6,6c-1.5-1.2-3.5-2-5.6-2c-5,0-9,4-9,9s4,9,9,9
	s9-4,9-9C21,10.9,20.3,8.9,19,7.4z M12,20c-3.9,0-7-3.1-7-7s3.1-7,7-7s7,3.1,7,7S15.9,20,12,20z"/>
</svg>
