<?xml version="1.0" encoding="utf-8"?>
<!-- Generator: Adobe Illustrator 20.1.0, SVG Export Plug-In . SVG Version: 6.00 Build 0)  -->
<svg version="1.1" id="Layer_1" xmlns="http://www.w3.org/2000/svg"  x="0px" y="0px"
	 viewBox="0 0 24 24" style="enable-background:new 0 0 24 24;" xml:space="preserve">
<path d="M12,6c-4.1,0-7.6,2.5-9,6c1.4,3.5,4.9,6,9,6s7.6-2.5,9-6C19.6,8.5,16.1,6,12,6z M12,16c-2.3,0-4.1-1.8-4.1-4S9.7,8,12,8
	s4.1,1.8,4.1,4S14.3,16,12,16z M12,9.6c-1.4,0-2.5,1.1-2.5,2.4s1.1,2.4,2.5,2.4s2.5-1.1,2.5-2.4S13.4,9.6,12,9.6z"/>
</svg>
